<svg version="1.2" baseProfile="tiny-ps" xmlns="http://www.w3.org/2000/svg" viewBox="0 0 354 432" width="354" height="432">
	<title>New Project</title>
	<style>
		tspan { white-space:pre }
		.shp0 { fill: #ffffff } 
	</style>
	<path id="Path 0" class="shp0" d="M101.97 50.25C62.07 77.89 23.49 104.66 16.22 109.75C8.95 114.84 2.32 120.01 1.49 121.25C0.17 123.23 -0.01 141.56 -0.01 274.25C0 372.73 0.35 425.69 1 427C1.55 428.1 3.58 429.68 5.5 430.5C8.07 431.6 9.66 431.74 11.5 431C12.88 430.45 16.14 428.51 18.75 426.68C21.36 424.86 37.45 413.69 54.5 401.86C71.55 390.03 87.97 378.68 91 376.64L96.5 372.92C329.03 373 345.45 372.81 348.5 371.5C350.43 370.68 352.45 369.1 353 368C353.65 366.7 354.01 323.38 354.02 244.25C354.03 147.49 353.77 122.16 352.77 120.86C352.07 119.96 346.1 115.43 339.5 110.8C332.9 106.17 312.2 91.78 293.5 78.82C274.8 65.87 241.5 42.82 219.5 27.6C192.63 9.01 178.68 -0.06 177 -0.03C175.37 -0.01 149.37 17.41 101.97 50.25Z" />
</svg>